<svg xmlns="http://www.w3.org/2000/svg" viewBox="0 0 510.24 510.24"><path d="M35.1 25.97h441v441h-441z" style="fill:#fff;stroke:#060300;stroke-miterlimit:10"/><path d="M0 0v510.24h510.24V0Zm108.46 459.91a192.15 192.15 0 0 1-29.57-102.85 194 194 0 0 1 2.54-31.39H188.2v33.57h.06c.8 29.56 17.91 54.93 42.38 66.86Zm337-93.25-122.29 33.83a77.6 77.6 0 0 0 13.16-43.43c0-41.28-31.8-74.89-71.54-76.26v-.07h-26.63v-65.61H293c30.3 0 54.87-25.8 54.87-57s-24.54-56.59-54.87-56.59c-26 0-47.78 18.7-53.41 43.76l-81.5-26.69a145.5 145.5 0 0 1 29.72-56.07h210.45a147.91 147.91 0 0 1 9.17 179.11 191.86 191.86 0 0 1 38.22 115.42q0 4.83-.23 9.6Z" style="fill-rule:evenodd"/></svg>